<svg data-name="구성 요소 8 – 2" xmlns="http://www.w3.org/2000/svg" width="56" height="27" viewBox="0 0 56 27">
    <defs>
        <clipPath id="8s7rweuela">
            <path data-name="패스 7698" d="M99.482 0a1.54 1.54 0 0 0-1.446.962 1.526 1.526 0 0 0-.06 1.234 1.914 1.914 0 0 0 1 .962l7.324 3.123h28.3l.025-.008a1.159 1.159 0 0 1 .787.219.633.633 0 0 1 .162.476.881.881 0 0 1-.21.661.822.822 0 0 1-.527.179l-24.022.011 4.342 7.922h14.455c.089 0 .378-.015.378.5a.371.371 0 0 1-.334.412h-15.365a.547.547 0 0 0 0 1.091h15.494l.053-.025a1.519 1.519 0 0 0 1.174-1.487 1.448 1.448 0 0 0-1.4-1.58h-13.85l-3.221-5.821h22.234a1.887 1.887 0 0 0 1.273-.448 1.86 1.86 0 0 0 .547-1.43 1.665 1.665 0 0 0-.471-1.219 2.251 2.251 0 0 0-1.524-.544h-28.089l-7.148-3.01a.813.813 0 0 1-.443-.373.5.5 0 0 1 .044-.426.579.579 0 0 1 .742-.336l7.112 3.055H135.3a.458.458 0 1 0 0-.91h-28.273L100.086.154l-.035-.067A1.73 1.73 0 0 0 99.517 0z" transform="translate(-97.875)" style="fill:none"/>
        </clipPath>
        <clipPath id="lrt2k65v8c">
            <path data-name="사각형 23946" style="fill:none" d="M0 0h55.566v27H0z"/>
        </clipPath>
        <linearGradient id="md1594299b" x1="-.457" y1="1.522" x2="-.452" y2="1.522" gradientUnits="objectBoundingBox">
            <stop offset="0" stop-color="#8eb9cf"/>
            <stop offset="1" stop-color="#0069a7"/>
        </linearGradient>
    </defs>
    <g data-name="그룹 18540">
        <g data-name="그룹 18539" style="clip-path:url(#8s7rweuela)" transform="translate(17.28)">
            <path data-name="사각형 23945" transform="translate(-.082)" style="fill:url(#md1594299b)" d="M0 0h38.803v17.742H0z"/>
        </g>
    </g>
    <g data-name="그룹 18542">
        <g data-name="그룹 18541" style="clip-path:url(#lrt2k65v8c)">
            <path data-name="패스 7699" d="M8.145 43.078v1.35H1.4v3.184h6.745v1.35H0v-5.884zM0 50.414h8.145v1.35H4.783v2.162h-1.4v-2.162H0z" transform="translate(0 -35.242)" style="fill:#1a1311"/>
            <path data-name="패스 7700" d="M64.191 43.078v1.35H57.45v3.184h6.741v1.35h-8.145v-5.884zm-8.145 7.336h8.145v1.35h-8.145z" transform="translate(-45.946 -35.242)" style="fill:#1a1311"/>
            <path data-name="패스 7701" d="M116.686 46.735v-2.307h-5.331v-1.35h6.735v5.007h-5.331v2.373h5.331v1.35h-6.735v-5.073zm2.973-3.657h1.4v8.688h-1.4z" transform="translate(-91.287 -35.242)" style="fill:#1a1311"/>
            <path data-name="패스 7702" d="M128.663 98.44h3.655a5.8 5.8 0 0 1 2.551.43 3.338 3.338 0 0 1 1.375 1.4 7.1 7.1 0 0 1 .54 2.834 7.491 7.491 0 0 1-.3 2.163 3.5 3.5 0 0 1-.834 1.278 2.939 2.939 0 0 1-1.153.7 8.131 8.131 0 0 1-2.15.194h-3.682zm1.488 1.459v6.064h2.575a3.456 3.456 0 0 0 1.491-.238 1.8 1.8 0 0 0 .758-.8 5.371 5.371 0 0 0 .294-1.859 4.284 4.284 0 0 0-.7-2.54 2.793 2.793 0 0 0-2.029-.627z" transform="translate(-105.476 -80.534)" style="fill:#1a1311"/>
            <path data-name="패스 7703" d="M180.418 130.693v1.517h-.785v-3.38h.785v.508c.394-.686 1.461-.565 1.461-.565v.718a1.726 1.726 0 0 0-1.048.268 1.2 1.2 0 0 0-.413.934" transform="translate(-147.26 -105.343)" style="fill:#6a6a6a"/>
            <path data-name="패스 7704" d="M193.705 130.464a.957.957 0 0 0 1.023.956.893.893 0 0 0 .9-.485h.853a1.761 1.761 0 0 1-1.729 1.123 1.686 1.686 0 0 1-1.864-1.786 1.831 1.831 0 1 1 3.66.064v.128zm2.024-.561a.982.982 0 0 0-1.018-.88 1 1 0 0 0-1.006.88z" transform="translate(-158.126 -105.063)" style="fill:#6a6a6a"/>
            <path data-name="패스 7705" d="M219.092 131.353v.674h-.385c-.512 0-.569-.306-.591-.433a1.813 1.813 0 0 1-1.416.466c-.785 0-1.228-.4-1.228-1.059 0-.931.853-1.014 1.353-1.065 1.125-.121 1.245-.166 1.245-.427 0-.389-.4-.485-.853-.485-.517 0-.8.185-.824.561h-.767c.114-.887.7-1.161 1.591-1.161 1.575 0 1.62.695 1.62 1.135v1.6c0 .184.119.191.17.191zm-1.039-1.1a3.408 3.408 0 0 1-1.029.21c-.591.076-.733.223-.733.51 0 .447.364.529.631.529.42 0 1.131-.178 1.131-.924z" transform="translate(-176.641 -105.064)" style="fill:#6a6a6a"/>
            <path data-name="패스 7706" d="M240.747 130.089c0-.35-.118-.778-.818-.778-.572 0-.74.643-.74 1.286v1.503h-.789v-3.379h.784v.456h.012a1.136 1.136 0 0 1 1.061-.546 1.18 1.18 0 0 1 1.19.625 1.136 1.136 0 0 1 1.081-.625 1.2 1.2 0 0 1 1.341 1.224v2.245h-.785v-2.015c0-.35-.112-.778-.811-.778-.546 0-.747.47-.747 1.21v1.583h-.785z" transform="translate(-195.441 -105.236)" style="fill:#6a6a6a"/>
            <path data-name="패스 7707" d="M71.44 121.4h2.3c1.671 0 2.083 1.071 2.083 2.437 0 1.031-.418 2.344-1.868 2.344H71.44zm.9 4.03h1.26c.644 0 1.331-.234 1.331-1.633 0-1.553-.878-1.647-1.379-1.647h-1.217z" transform="translate(-58.565 -99.317)" style="fill:#6a6a6a"/>
            <path data-name="패스 7708" d="M100.41 127.8a1.858 1.858 0 0 1 .94.252 1.817 1.817 0 0 1 .687.685 1.852 1.852 0 0 1 .247.934 1.888 1.888 0 0 1-.248.944 1.8 1.8 0 0 1-.677.686 1.851 1.851 0 0 1-.945.248 1.754 1.754 0 0 1-1.3-.546 1.9 1.9 0 0 1 .07-2.718 1.764 1.764 0 0 1 1.224-.485m.015.842a.908.908 0 0 0-.688.29 1.036 1.036 0 0 0-.275.742 1.054 1.054 0 0 0 .272.754.9.9 0 0 0 .688.288.914.914 0 0 0 .693-.291 1.158 1.158 0 0 0 0-1.5.913.913 0 0 0-.694-.287" transform="translate(-80.814 -104.551)" style="fill:#6a6a6a"/>
        </g>
    </g>
</svg>
